<?xml version="1.0" encoding="UTF-8"?>
<svg xmlns="http://www.w3.org/2000/svg" viewBox="0 0 240 240" width="14" height="14">
  <defs>
    <linearGradient id="tg-bg" x1="50%" x2="50%" y1="0%" y2="100%">
      <stop offset="0%" stop-color="#2AABEE"/>
      <stop offset="100%" stop-color="#229ED9"/>
    </linearGradient>
  </defs>
  <circle cx="120" cy="120" r="120" fill="url(#tg-bg)"/>
  <path fill="#FFFFFF" d="M180.7 67.2c-1.6-1.3-4-1.5-7.1-.3L60.5 113c-3.1 1.2-4.6 2.9-4.5 5.1.1 2.2 1.7 3.9 4.9 5l28.9 9.1 11.2 33.7c1.4 4.1 4 5.4 7.9 3.9 1.6-.6 2.9-1.7 3.9-3.1l16.4-22.7 30.1 22.2c5.5 3 9.4 1.4 10.8-5l19.6-91.7c1-4.8.2-7.9-2-9.4l-7-2.9zM103.8 142.7l-3.3-9.6 79-49.6-65.4 60.4-10.3-1.2z"/>
</svg>
